<?xml version="1.0" encoding="UTF-8"?>
<svg id="Layer_1" xmlns="http://www.w3.org/2000/svg" version="1.1" viewBox="211 412 574 176">
  <!-- Generator: Adobe Illustrator 29.6.0, SVG Export Plug-In . SVG Version: 2.1.1 Build 207)  -->
  <defs>
    <style>
      .st0 {
        fill: #42864e;
      }

      .st1 {
        fill: #1d4739;
      }

      .st2 {
        fill: #5fb391;
      }
    </style>
  </defs>
  <g>
    <path class="st1" d="M755.51,424.19c6.48-.61,21.88-.94,26.59,3.96,5.39,5.6,5.45,22.53-1.11,27.31-6.26,4.55-26.09,4.42-33.26,1.78-8.06-2.97-8.54-12.68-7.83-20.11.92-9.61,6.79-12.11,15.62-12.94ZM776.47,432.31c-1.18-1.18-15.68-1.46-18.25-1.33-1.31.07-7.92.64-8.43.89-.96.47-1.07,1.37-1.19,2.3-.22,1.73-.13,15.3.31,16.04.38.64,1.64,1.01,2.38,1.12,2.12.32,7.56.63,9.85.64,2.09.02,14.22-.59,15.09-1.14,1.47-.93,1.43-17.36.25-18.54Z"/>
    <path class="st1" d="M652.63,428.88c5.5-6.14,26.48-5.75,33.87-3.66,2.91.82,5.59,2.45,7.06,5.18,3.03,5.61,3.36,20.56-2.1,24.74-6.5,4.97-29.57,5.27-36.31.81-6.75-4.47-7.45-21.57-2.52-27.07ZM658.98,450.66c.42.42,1.33.58,1.94.67,2.32.32,7.44.64,9.85.66,1.96.02,14.1-.51,14.9-.89.96-.47,1.07-1.37,1.19-2.3.22-1.73.13-15.3-.31-16.04-.68-1.15-8.04-1.67-9.89-1.76-2.71-.13-6.08-.14-8.79,0-1.23.06-8.07.68-8.44.89-.42.25-.74.95-.9,1.43-.61,1.86-.57,16.33.46,17.36Z"/>
    <path class="st1" d="M608.11,446.43c.18-1.1,1.48-3.21,2.31-4.1,5.39-5.82,20.06-3.3,27.17-5.47l.26-6.44c-9.14-.11-18.37.31-27.4,1.75l.54-7.31c7.73-.1,29.24-3.81,33.77,3.62,1.44,2.36,1.6,6.41,1.12,9.09-1.68,9.21-22.15,6.41-29.02,8v5.82h28.57v6.99h-37.32c.42-3.64-.58-8.46,0-11.94Z"/>
    <path class="st1" d="M726.47,437.99v-7.57s-26.82,1.17-26.82,1.17v-6.99c8.34.42,25.92-3.1,32.62,2.08,4.84,3.74,3.41,11.89-1.71,14.81,6.02.97,7.06,10.83,2.89,14.25-5.74,4.71-20.06,3.11-27.1,2.65-1.61-.11-6.9.47-7.61-.55l-.25-7.03,29.15,1.75c-.37-2.59.91-6.14-.88-8.15h-18.95v-6.4h18.66Z"/>
  </g>
  <g>
    <path class="st0" d="M642.51,529.4v-50.95c.51-.83,1.16-.8,2.01-.9,9.27-1.09,26.44-.42,36.2,0,12.22.54,25.07,1.19,28.55,15.16,2.46,9.86,2.41,27.49-7.68,33.1-2.32,1.29-10.23,3.58-12.74,3.58h-46.35ZM657.09,490.39v26.78c12.42-.09,25.02.46,37.23-1.25-.99-4.45,2-21.25.04-24.04-.38-.54-.71-.89-1.41-.92l-35.86-.58Z"/>
    <path class="st0" d="M412.21,478.46c.51-.83,1.16-.8,2.01-.9,8.84-1.04,41.92-.79,49.89,1.47,9.16,2.61,11.37,10.53,10.48,19.22-.97,9.5-8.95,12.78-17.48,13.4l18.65,17.76h-18.95l-18.66-17.47h-11.37v17.47h-14.58v-50.95ZM455.06,489.23c-8.76-1.01-19.32.75-28.28,0v11.64l31.93-.97c1.87-.8,1.98-8.93.13-9.8-.32-.15-3.28-.81-3.79-.87Z"/>
    <polygon class="st0" points="734.63 477.58 734.63 497.38 769.62 497.38 769.62 478.46 770.49 477.58 784.19 477.58 784.19 529.4 769.62 529.4 769.62 509.61 734.63 509.61 734.63 529.4 720.64 529.4 720.64 477.58 734.63 477.58"/>
    <path class="st0" d="M634.93,529.4h-15.74l-4.02-9.55-31.17-.25-5.34,9.8h-14.87l24.77-51.24c.45-.6,1.08-.53,1.72-.61,3.64-.44,13.9-.43,17.56,0,.84.1,1.53.06,1.95.97l25.13,50.88ZM609.28,507.86l-10.49-20.38-9.34,20.38h19.82Z"/>
    <path class="st0" d="M523.57,477.58l16.03,22.11,16.91-22.11h15.45l-.57,2.05c-2.33,4.42-25.08,30.54-25.08,32.59v17.18h-13.99v-17.18c0-2.06-22.82-28.11-25.09-32.59l-.57-2.05h16.91Z"/>
    <rect class="st0" x="485.67" y="477.58" width="13.99" height="51.82"/>
  </g>
  <g>
    <path class="st1" d="M557.85,424.19c6.84-.7,22.47-1.05,27.25,4.47,4.37,5.05,4.66,21.29-.28,25.95-6.05,5.71-30.67,5.82-37.31,1.1-4.94-3.52-5.69-11.73-5.21-17.35.86-10.06,5.93-13.19,15.55-14.17ZM551.69,450.66c.42.42,1.33.58,1.94.67,2.32.32,7.44.64,9.85.66,1.96.02,14.1-.51,14.9-.89.96-.47,1.07-1.37,1.19-2.3.24-1.85.18-15.02-.32-16.04-.32-.66-1.04-1.05-1.77-1.15-5.67-.09-11.22-.91-16.92-.62-1.23.06-8.07.68-8.44.89-.42.25-.74.95-.9,1.43-.61,1.86-.57,16.33.46,17.36Z"/>
    <path class="st1" d="M450.11,424.6v6.99h-29.74v6.4h22.16v6.4h-21.28c-1.71,1.69-.57,4.74-.87,6.99h30.32v6.99h-37.61l-.87-.87v-32.9h37.9Z"/>
    <path class="st1" d="M529.69,424.6c1.05.14,5.72,1.84,6.52,2.52,4.38,3.67,4.4,15.03-.94,18.19-.53.31-4.73,2-4.99,2h-22.45v10.19c-2.02,1.78-5.57.51-8.16.87v-33.77h30.03ZM507.83,431.59v8.73h21.28c.16,0,1.36-.6,1.48-.98l-.05-7.14-22.71-.61Z"/>
    <path class="st1" d="M464.68,424.6l10.2,12.23c2.91-3.84,6.28-7.34,9.65-10.79.48-.49.49-1.45.56-1.45h10.49l-14.47,16.01,14.47,17.76h-9.62l-11.94-13.39-11.38,13.39h-9.62l14.6-17.18-13.43-16.59h10.49Z"/>
  </g>
  <g>
    <path class="st1" d="M372.44,456.45c.81,2.15,1.06,4.27.3,6.47l-20.89,36.8-50.14-85v-.56c7.19,3.44,14.59,7.22,19.77,13.41l29.79,51.17,15.19-25.6.2-1.39c-3.59-2.66-5.51-6.9-4.35-11.46l15.19-26.16h11.95l-21.35,36.64c1.34,2.05,3.36,3.17,4.32,5.68Z"/>
    <path class="st0" d="M301.72,414.16v.56l-49.56,84.98c-4.34-6.94-8.61-14-12.63-21.15-2.36-4.17-9.2-14.61-9.28-18.73-.07-3.42,2.1-6.58,5.25-7.92l-21.53-37.78h11.95c4.17,7.31,9.53,14.82,13.22,22.31,3.26,6.64,3.57,11.24-2.96,15.81l16.27,26.5c6.09-11.04,12.16-22.14,18.56-33,4.39-7.43,9.43-18.22,16.25-23.38,1.45-1.1,13.62-8.22,14.47-8.22Z"/>
    <path class="st1" d="M213.97,585.88l21.47-36.98c-3.77-3.52-6.21-6.31-4.75-11.83l20.89-36.79,49.84,85.59c-6.93-3.76-14.38-7.21-19.48-13.44l-29.78-51.78-15.37,26.64c-.41,1.7,1.53,1.9,2.51,3.09,2.35,2.86,2.67,6.74,1.52,10.19l-14.9,25.3h-11.95Z"/>
    <path class="st0" d="M377.52,585.88l-15.19-26.75c-1.22-4.35.8-8.77,4.94-10.57l-.02-.72-16.25-26.59-28.92,50.6c-5.2,6.57-12.94,10-20.06,14.02l49.26-85.58c5.61,9.23,11.5,18.6,16.72,28.13,3.71,6.79,9.5,14.46-.06,19.67l21.53,37.78h-11.95Z"/>
    <path class="st1" d="M302.53,460.76l22.18,39.23-23.27,39.89-22.73-39.88,22.2-39.24h1.62ZM302.01,518.34l10.3-18.33-10.86-18.34-10.3,18.33,10.86,18.34Z"/>
    <path class="st2" d="M289.77,585.88h-11.95l-13.41-22.71-13.41,22.71h-11.95l15.12-27.31c-5.93-2.93-7.14-12.83-1.72-16.94l11.66,20.68c9.57,6.44,19.99,13.24,25.66,23.57Z"/>
    <path class="st2" d="M325.63,414.12l13.41,22.71,13.41-22.71h11.95l-15.12,27.31c5.95,3.03,7.12,12.56,1.72,16.94l-11.66-20.68c-9.61-6.42-19.97-13.21-25.66-23.57h11.95Z"/>
    <path class="st1" d="M251,414.12l13.41,22.71,13.41-22.71h11.95c-3.43,7.33-10.59,12.87-16.97,17.69-2.24,1.7-6.4,3.61-8.1,5.3-4.06,4.03-7.53,14.56-11.4,19.47-.44.56-.87,1.31-1.71,1.21-3.76-5.35-3.78-13.22,2.58-16.37l-15.12-27.31h11.95Z"/>
    <g>
      <path class="st1" d="M364.4,585.88h-11.95l-13.18-23,11.73-21.25c4.9,4.83,4.79,13.39-1.51,16.88l-.18.76,15.09,26.6Z"/>
      <path class="st1" d="M313.67,585.88c-1.26-1.09,9.91-12.1,11.07-13.11,1.22-1.06,13.42-10.22,14-9.6l-13.11,22.71h-11.95Z"/>
    </g>
  </g>
  <g>
    <path class="st2" d="M721.51,549.2c1.76.17,5.32.96,6.68,2.06,2.98,2.42,3.78,9.09-.55,10.18v1.14c4.31.88,4.76,8.36,1.72,10.76-.67.53-4.31,2.06-4.93,2.06h-25.07l-.87-.87v-24.45l.87-.87c7.13.51,15.14-.69,22.16,0ZM706.06,559.68h14.87c.3,0,1.32-.72,1.95-.67l.09-3.41c-5.69.43-11.23-.85-16.91-.58v4.66ZM706.06,569.58h16.62l.88-4.08-17.5-.58v4.66Z"/>
    <path class="st2" d="M520.66,575.4v-26.2c7.22.75,25.67-2.04,30.9,3.2,4.14,4.14,4.32,17.68-1.21,20.92-.57.34-5.71,2.08-6.08,2.08h-23.61ZM546.31,556.19l-18.66-.58v13.39h17.78l.87-.87v-11.94Z"/>
    <path class="st2" d="M645.72,549.2c3.82.37,7.8,1.49,9.07,5.5,2.08,6.56-1.47,11.35-8.19,11.68,2.42,2.65,5.11,4.98,7.76,7.39.57.52,1.25.51.98,1.64h-9.04c-.62,0-7.54-7.75-9.05-8.43-1.65-.75-4.03-.11-5.82-.3v8.73h-7.58v-25.33l.87-.87c6.76.48,14.34-.65,20.99,0ZM631.43,560.84h15.45c1.51-1.23.74-3.48.87-5.23l-16.32-.59v5.83Z"/>
    <path class="st2" d="M440.77,556.18c-1.87-.36-21.4-2.59-21.58-1.41v4.33c8.04.72,26.57-1.67,23.05,11.66-1.01,3.84-6.44,4.97-9.9,5.24-6.37.5-13.69-.21-19.88-1.15l-.26-5.86,22.74,1.17-.08-3.71-.87-.87c-6.95-1-22.05,1.77-22.31-8.58-.31-12.14,20.82-7.01,28.14-7.72,1.78.58.67,5.33.95,6.9Z"/>
    <path class="st2" d="M480.42,575.4l-7.58-.28-2.42-4.86-15.26-.12-3.11,5.17-7.2-.2,12.22-25.06c1.28-1.3,9.87-1.42,11.05.09l12.3,25.26ZM467.6,564.34l-4.96-9.9-4.96,9.9h9.91Z"/>
    <path class="st2" d="M658.84,575.4l12.53-25.63,9.94-.62,13.09,26.24-7.48-.09-2.81-5.05-15.42.27-1.69,4.88h-8.16ZM681.58,564.34c-.26-.96-4.48-10.47-5.24-9.9l-4.09,9.9h9.33Z"/>
    <path class="st2" d="M784.77,575.4l-7.58-.28-2.42-4.86-15.26-.12-3.11,5.17-7.2-.2,12.22-25.06c1.28-1.3,9.87-1.42,11.05.09l12.3,25.26ZM771.95,564.34l-4.96-9.9-4.96,9.9h9.91Z"/>
    <path class="st2" d="M620.35,575.4l-7.58-.28-2.42-4.86-15.26-.12-3.11,5.17-7.2-.2,12.22-25.06c1.28-1.3,9.87-1.42,11.05.09l12.3,25.26ZM607.53,564.34c-.79-.82-4.49-10.47-5.24-9.9l-4.67,9.9h9.91Z"/>
    <path class="st2" d="M489.75,568.99c.58.91,15.35.86,17.49,0v-19.8h7v18.92c0,1.07-1.96,3.86-2.9,4.67-4.81,4.16-20.73,4.43-25.65.54-5.27-4.16-3.11-17.13-3.44-23.18l.46-.7c.79-.55,6.23-.67,7.03.62v18.92Z"/>
    <path class="st2" d="M559.72,549.2h7.58c.29.21-.58.75-.58.87v25.33h-7v-26.2Z"/>
    <rect class="st2" x="737.55" y="549.2" width="7" height="26.2"/>
  </g>
</svg>